<?xml version="1.0" standalone="no"?>
<!DOCTYPE svg PUBLIC "-//W3C//DTD SVG 20010904//EN"
 "http://www.w3.org/TR/2001/REC-SVG-20010904/DTD/svg10.dtd">
<svg version="1.0" xmlns="http://www.w3.org/2000/svg"
 width="220.000000pt" height="220.000000pt" viewBox="0 0 220.000000 220.000000"
 preserveAspectRatio="xMidYMid meet">
<metadata>
Created by potrace 1.14, written by Peter Selinger 2001-2017
</metadata>
<g transform="translate(0.000000,220.000000) scale(0.100000,-0.100000)"
fill="#000000" stroke="none">
<path d="M867 2040 l-207 -160 0 50 0 50 -100 0 -100 0 0 -129 0 -129 -90 -69
-90 -68 0 -396 0 -395 148 -72 c186 -90 240 -106 362 -106 115 1 204 28 405
124 146 70 235 103 333 126 70 16 215 21 295 9 l47 -7 -2 357 -3 358 -394 309
c-217 169 -394 308 -395 308 -1 0 -95 -72 -209 -160z"/>
<path d="M0 761 l0 -70 58 -16 c31 -9 138 -54 237 -100 210 -98 303 -130 417
-145 158 -22 269 3 521 119 284 131 400 160 561 142 98 -12 130 -23 273 -95
62 -31 117 -56 123 -56 6 0 10 29 10 70 l0 70 -88 44 c-48 24 -116 53 -152 64
-92 28 -238 46 -320 39 -126 -11 -202 -37 -509 -177 -144 -65 -239 -90 -349
-90 -124 0 -217 29 -411 127 -139 70 -323 143 -361 143 -6 0 -10 -30 -10 -69z"/>
<path d="M0 552 l0 -71 58 -16 c31 -9 115 -44 187 -77 319 -148 394 -171 555
-171 133 -1 216 22 399 107 295 138 367 160 526 159 128 0 213 -24 350 -98 44
-23 90 -46 103 -50 21 -6 22 -4 22 64 l0 70 -67 36 c-148 79 -342 123 -493
112 -110 -9 -235 -49 -411 -132 -217 -103 -291 -127 -414 -133 -146 -7 -226
16 -450 127 -169 84 -255 119 -332 136 l-33 7 0 -70z"/>
<path d="M0 344 l0 -69 83 -26 c45 -15 154 -61 242 -102 263 -123 409 -158
568 -137 106 15 170 37 349 120 189 88 296 126 398 140 152 21 279 -7 452
-100 52 -27 98 -50 101 -50 4 0 7 33 7 73 l0 74 -97 46 c-147 70 -231 90 -393
90 -120 1 -145 -2 -225 -26 -49 -16 -157 -60 -240 -99 -239 -112 -325 -138
-456 -138 -118 0 -212 29 -414 129 -176 88 -261 122 -337 136 l-38 7 0 -68z"/>
</g>
</svg>
